<?xml version="1.0" standalone="no"?>
<!DOCTYPE svg PUBLIC "-//W3C//DTD SVG 20010904//EN"
 "http://www.w3.org/TR/2001/REC-SVG-20010904/DTD/svg10.dtd">
<svg version="1.0" xmlns="http://www.w3.org/2000/svg"
 width="1295.000000pt" height="1295.000000pt" viewBox="0 0 1295.000000 1295.000000"
 preserveAspectRatio="xMidYMid meet">
<metadata>
Created by potrace 1.11, written by Peter Selinger 2001-2013
</metadata>
<g transform="translate(0.000000,1295.000000) scale(0.100000,-0.100000)"
fill="#000000" stroke="none">
<path d="M5100 12795 c-475 -104 -966 -270 -1389 -470 -1068 -505 -1981 -1290
-2629 -2260 -633 -950 -993 -2013 -1073 -3169 -15 -225 -6 -848 15 -1051 79
-738 248 -1378 532 -2012 879 -1967 2686 -3371 4804 -3732 411 -70 762 -96
1215 -88 331 6 512 19 790 58 1180 164 2312 666 3230 1432 505 421 972 948
1308 1478 l35 55 -156 -94 c-208 -124 -583 -310 -810 -401 -1429 -571 -2984
-574 -4409 -9 -562 222 -1102 541 -1577 930 -171 140 -396 349 -525 487 l-110
118 57 23 c127 52 222 129 293 238 87 132 132 282 145 483 l7 106 47 12 c191
49 510 441 635 781 29 78 40 208 22 258 -9 23 -7 22 55 -9 251 -126 449 -127
581 0 69 65 94 147 76 248 -15 82 -53 149 -172 310 -124 168 -159 235 -165
313 -6 77 25 135 123 229 112 107 139 167 143 323 3 93 0 138 -18 219 -25 119
-139 453 -174 513 -34 58 -107 123 -174 154 -49 23 -70 27 -147 27 -78 0 -97
-4 -140 -27 -122 -64 -200 -201 -261 -458 -52 -220 -127 -324 -365 -506 -78
-60 -160 -131 -181 -158 -84 -106 -118 -210 -118 -366 0 -52 -5 -113 -11 -135
-50 -180 -288 -245 -415 -113 -76 79 -388 622 -503 874 -224 493 -288 944
-201 1399 82 421 306 746 630 910 201 102 402 141 855 165 364 20 482 37 665
96 349 112 598 346 635 597 l7 47 -106 114 c-58 63 -106 118 -106 123 0 4 16
17 35 27 94 51 190 191 215 313 18 86 7 184 -29 258 -103 209 -564 482 -943
559 -103 21 -261 21 -327 -1 -87 -28 -198 -128 -366 -329 -176 -211 -268 -305
-364 -368 -120 -80 -274 -132 -462 -156 -157 -21 -156 -31 -21 170 234 350
434 593 746 906 227 227 382 366 565 505 57 43 100 79 95 78 -5 0 -56 -11
-114 -24z"/>
<path d="M9795 10463 c-321 -41 -519 -170 -641 -418 -71 -145 -87 -221 -88
-415 -1 -123 4 -186 17 -250 57 -269 206 -572 395 -803 89 -108 264 -272 382
-359 210 -152 371 -218 555 -226 66 -2 134 0 168 8 173 35 354 184 440 361 72
146 91 275 63 410 -19 90 -56 173 -141 319 -180 310 -197 379 -171 685 21 240
8 314 -75 429 -87 122 -301 222 -542 255 -74 10 -296 13 -362 4z"/>
<path d="M6682 9756 c-98 -37 -206 -113 -392 -276 -58 -51 -148 -125 -200
-165 -120 -91 -190 -167 -232 -253 -29 -58 -33 -77 -33 -142 1 -127 31 -168
228 -297 193 -127 239 -198 336 -518 82 -268 147 -371 292 -465 93 -60 201
-92 334 -97 191 -8 328 40 445 157 115 114 173 263 173 445 0 162 -53 315
-145 420 l-42 48 40 30 c74 58 162 154 190 208 22 43 28 71 31 139 4 74 1 91
-19 130 -75 145 -282 145 -495 -1 l-42 -29 24 52 c103 225 6 507 -209 609 -81
38 -189 40 -284 5z"/>
<path d="M11162 8124 c-83 -22 -157 -63 -222 -122 -294 -266 -346 -737 -110
-995 208 -228 555 -276 771 -106 89 70 157 217 166 359 9 152 -35 278 -129
366 l-49 46 19 22 c11 11 25 32 33 46 19 37 17 147 -4 202 -23 60 -92 124
-144 134 -21 4 -49 15 -63 24 -58 41 -170 51 -268 24z"/>
</g>
</svg>
